<svg width="25" height="25" viewBox="0 0 25 25" fill="none" xmlns="http://www.w3.org/2000/svg">
<path d="M10.3678 10.9538H0.585938C0.262354 10.9538 0 10.6914 0 10.3678V0.585938C0 0.262354 0.262354 0 0.585938 0H2.92969C3.25327 0 3.51562 0.262354 3.51562 0.585938V4.4C5.75063 1.91792 8.99707 0.364746 12.6062 0.390967C19.2911 0.439502 24.6398 5.84131 24.6256 12.5263C24.6114 19.2021 19.1953 24.6094 12.5163 24.6094C9.38691 24.6094 6.53501 23.4222 4.38589 21.4739C4.13691 21.2482 4.12544 20.8609 4.36309 20.6233L6.02163 18.9647C6.24009 18.7463 6.59106 18.7344 6.82246 18.9391C8.33789 20.2801 10.3311 21.0938 12.5163 21.0938C17.2657 21.0938 21.11 17.2502 21.11 12.5C21.11 7.75063 17.2665 3.90625 12.5163 3.90625C9.66001 3.90625 7.13149 5.29668 5.56929 7.43813H10.3678C10.6914 7.43813 10.9538 7.70049 10.9538 8.02407V10.3678C10.9538 10.6914 10.6914 10.9538 10.3678 10.9538Z" fill="#D7BD62"/>
</svg>
