<svg width="49" height="43" viewBox="0 0 49 43" fill="none" xmlns="http://www.w3.org/2000/svg">
<path fill-rule="evenodd" clip-rule="evenodd" d="M12.7147 1C13.4914 1 14.2363 1.30855 14.7855 1.85776C15.3347 2.40697 15.6433 3.15187 15.6433 3.92857V9.78571C15.6433 10.5624 15.3347 11.3073 14.7855 11.8565C14.2363 12.4057 13.4914 12.7143 12.7147 12.7143C11.938 12.7143 11.1931 12.4057 10.6439 11.8565C10.0947 11.3073 9.78613 10.5624 9.78613 9.78571V3.92857C9.78613 3.15187 10.0947 2.40697 10.6439 1.85776C11.1931 1.30855 11.938 1 12.7147 1Z" fill="white" stroke="white" stroke-linecap="round" stroke-linejoin="round"/>
<path fill-rule="evenodd" clip-rule="evenodd" d="M47.8569 6.85712H15.6426H47.8569Z" fill="white"/>
<path d="M47.8569 6.85712H15.6426" stroke="white" stroke-linecap="round" stroke-linejoin="round"/>
<path fill-rule="evenodd" clip-rule="evenodd" d="M9.78571 6.85712H1H9.78571Z" fill="white"/>
<path d="M9.78571 6.85712H1" stroke="white" stroke-linecap="round" stroke-linejoin="round"/>
<path fill-rule="evenodd" clip-rule="evenodd" d="M12.7147 30.2857C13.4914 30.2857 14.2363 30.5943 14.7855 31.1435C15.3347 31.6927 15.6433 32.4376 15.6433 33.2143V39.0714C15.6433 39.8481 15.3347 40.593 14.7855 41.1422C14.2363 41.6914 13.4914 42 12.7147 42C11.938 42 11.1931 41.6914 10.6439 41.1422C10.0947 40.593 9.78613 39.8481 9.78613 39.0714V33.2143C9.78613 32.4376 10.0947 31.6927 10.6439 31.1435C11.1931 30.5943 11.938 30.2857 12.7147 30.2857Z" fill="white" stroke="white" stroke-linecap="round" stroke-linejoin="round"/>
<path fill-rule="evenodd" clip-rule="evenodd" d="M47.8569 36.1429H15.6426H47.8569Z" fill="white"/>
<path d="M47.8569 36.1429H15.6426" stroke="white" stroke-linecap="round" stroke-linejoin="round"/>
<path fill-rule="evenodd" clip-rule="evenodd" d="M9.78571 36.1429H1H9.78571Z" fill="white"/>
<path d="M9.78571 36.1429H1" stroke="white" stroke-linecap="round" stroke-linejoin="round"/>
<path fill-rule="evenodd" clip-rule="evenodd" d="M36.1424 15.6429C36.9191 15.6429 37.664 15.9514 38.2133 16.5006C38.7625 17.0499 39.071 17.7947 39.071 18.5715V24.4286C39.071 25.2053 38.7625 25.9502 38.2133 26.4994C37.664 27.0486 36.9191 27.3572 36.1424 27.3572C35.3657 27.3572 34.6208 27.0486 34.0716 26.4994C33.5224 25.9502 33.2139 25.2053 33.2139 24.4286V18.5715C33.2139 17.7947 33.5224 17.0499 34.0716 16.5006C34.6208 15.9514 35.3657 15.6429 36.1424 15.6429Z" fill="white" stroke="white" stroke-linecap="round" stroke-linejoin="round"/>
<path fill-rule="evenodd" clip-rule="evenodd" d="M33.2143 21.5H1H33.2143Z" fill="white"/>
<path d="M33.2143 21.5H1" stroke="white" stroke-linecap="round" stroke-linejoin="round"/>
<path fill-rule="evenodd" clip-rule="evenodd" d="M47.857 21.5H39.0713H47.857Z" fill="white"/>
<path d="M47.857 21.5H39.0713" stroke="white" stroke-linecap="round" stroke-linejoin="round"/>
</svg>
