<svg width="8" height="16" viewBox="0 0 8 16" fill="none" xmlns="http://www.w3.org/2000/svg">
<path d="M0.00270284 7.98745C0.00218167 7.72089 0.0951335 7.46255 0.265424 7.2573L5.97676 0.412138C6.17064 0.179156 6.44926 0.0326414 6.7513 0.0048275C7.05335 -0.0229864 7.35408 0.0701785 7.58735 0.263827C7.82062 0.457475 7.96732 0.735743 7.99517 1.03742C8.02301 1.33909 7.92974 1.63946 7.73585 1.87244L2.61849 7.98745L7.55308 14.1025C7.64797 14.2192 7.71882 14.3534 7.76158 14.4976C7.80434 14.6417 7.81815 14.7929 7.80223 14.9423C7.78631 15.0918 7.74096 15.2367 7.6688 15.3686C7.59664 15.5005 7.49909 15.6169 7.38175 15.7111C7.2643 15.8156 7.12651 15.8947 6.97702 15.9435C6.82752 15.9923 6.66955 16.0098 6.51298 15.9948C6.35642 15.9798 6.20465 15.9327 6.06717 15.8564C5.92969 15.7801 5.80947 15.6762 5.71404 15.5514L0.196888 8.70619C0.0535155 8.49504 -0.0148548 8.24198 0.00270284 7.98745Z" fill="#D7BD62"/>
</svg>
