<svg width="11" height="22" viewBox="0 0 11 22" fill="none" xmlns="http://www.w3.org/2000/svg">
<path d="M0.00371661 10.9827C0.00299962 10.6162 0.130808 10.261 0.364958 9.97879L8.21804 0.56669C8.48464 0.246339 8.86773 0.0448819 9.28304 0.00663781C9.69835 -0.0316062 10.1119 0.0964954 10.4326 0.362761C10.7534 0.629027 10.9551 1.01165 10.9934 1.42645C11.0316 1.84125 10.9034 2.25425 10.6368 2.5746L3.60043 10.9827L10.3855 19.3909C10.516 19.5513 10.6134 19.736 10.6722 19.9342C10.731 20.1323 10.75 20.3402 10.7281 20.5457C10.7062 20.7513 10.6438 20.9505 10.5446 21.1319C10.4454 21.3133 10.3112 21.4733 10.1499 21.6027C9.98841 21.7464 9.79895 21.8552 9.5934 21.9223C9.38784 21.9894 9.17063 22.0135 8.95535 21.9928C8.74008 21.9722 8.53139 21.9074 8.34235 21.8025C8.15332 21.6976 7.98802 21.5548 7.8568 21.3831L0.270722 11.971C0.073584 11.6807 -0.0204251 11.3327 0.00371661 10.9827V10.9827Z" fill="white"/>
</svg>
